<mxfile host="app.diagrams.net" agent="Mozilla/5.0 (Windows NT 10.0; Win64; x64) AppleWebKit/537.36 (KHTML, like Gecko) Chrome/134.0.0.0 Safari/537.36 Edg/134.0.0.0" version="26.2.9">
  <diagram id="l8hXMBHkgcEJcSW0mbfh" name="Page-1">
    <mxGraphModel dx="780" dy="514" grid="1" gridSize="10" guides="1" tooltips="1" connect="1" arrows="1" fold="1" page="1" pageScale="1" pageWidth="1169" pageHeight="827" math="0" shadow="0">
      <root>
        <mxCell id="0" />
        <mxCell id="1" parent="0" />
        <mxCell id="ItKAdxeLdwjzMpxZXas6-14" value="" style="image;aspect=fixed;html=1;points=[];align=center;fontSize=12;image=img/lib/azure2/general/SSD.svg;labelBackgroundColor=none;" vertex="1" parent="1">
          <mxGeometry x="80" y="190" width="22" height="20" as="geometry" />
        </mxCell>
        <mxCell id="ItKAdxeLdwjzMpxZXas6-15" value="" style="image;aspect=fixed;html=1;points=[];align=center;fontSize=12;image=img/lib/azure2/general/SSD.svg;labelBackgroundColor=none;" vertex="1" parent="1">
          <mxGeometry x="80" y="225" width="22" height="20" as="geometry" />
        </mxCell>
        <mxCell id="ItKAdxeLdwjzMpxZXas6-16" value="" style="pointerEvents=1;shadow=0;dashed=0;html=1;strokeColor=none;fillColor=#4495D1;labelPosition=center;verticalLabelPosition=bottom;verticalAlign=top;align=center;outlineConnect=0;shape=mxgraph.veeam.2d.network_card;" vertex="1" parent="1">
          <mxGeometry x="220" y="270" width="21.4" height="15" as="geometry" />
        </mxCell>
        <mxCell id="ItKAdxeLdwjzMpxZXas6-19" value="" style="pointerEvents=1;shadow=0;dashed=0;html=1;strokeColor=none;fillColor=#4495D1;labelPosition=center;verticalLabelPosition=bottom;verticalAlign=top;align=center;outlineConnect=0;shape=mxgraph.veeam.vmware_host;" vertex="1" parent="1">
          <mxGeometry x="410" y="166.5" width="110" height="133.5" as="geometry" />
        </mxCell>
        <mxCell id="ItKAdxeLdwjzMpxZXas6-26" value="" style="shadow=0;dashed=0;html=1;strokeColor=none;fillColor=#4495D1;labelPosition=center;verticalLabelPosition=bottom;verticalAlign=top;align=center;outlineConnect=0;shape=mxgraph.veeam.2d.veeam_backup_and_replication_server;" vertex="1" parent="1">
          <mxGeometry x="90" y="176.5" width="115.27" height="123.5" as="geometry" />
        </mxCell>
        <mxCell id="ItKAdxeLdwjzMpxZXas6-29" value="" style="pointerEvents=1;shadow=0;dashed=0;html=1;strokeColor=none;fillColor=#4495D1;labelPosition=center;verticalLabelPosition=bottom;verticalAlign=top;align=center;outlineConnect=0;shape=mxgraph.veeam.2d.network_card;" vertex="1" parent="1">
          <mxGeometry x="220" y="285" width="21.4" height="15" as="geometry" />
        </mxCell>
        <mxCell id="ItKAdxeLdwjzMpxZXas6-34" value="" style="edgeStyle=orthogonalEdgeStyle;rounded=0;orthogonalLoop=1;jettySize=auto;html=1;" edge="1" parent="1" source="ItKAdxeLdwjzMpxZXas6-30" target="ItKAdxeLdwjzMpxZXas6-16">
          <mxGeometry relative="1" as="geometry">
            <mxPoint x="318.60000000000014" y="277.5" as="targetPoint" />
          </mxGeometry>
        </mxCell>
        <mxCell id="ItKAdxeLdwjzMpxZXas6-30" value="" style="pointerEvents=1;shadow=0;dashed=0;html=1;strokeColor=none;fillColor=#4495D1;labelPosition=center;verticalLabelPosition=bottom;verticalAlign=top;align=center;outlineConnect=0;shape=mxgraph.veeam.2d.network_card;" vertex="1" parent="1">
          <mxGeometry x="398.59999999999997" y="270" width="21.4" height="15" as="geometry" />
        </mxCell>
        <mxCell id="ItKAdxeLdwjzMpxZXas6-31" value="" style="pointerEvents=1;shadow=0;dashed=0;html=1;strokeColor=none;fillColor=#4495D1;labelPosition=center;verticalLabelPosition=bottom;verticalAlign=top;align=center;outlineConnect=0;shape=mxgraph.veeam.2d.network_card;" vertex="1" parent="1">
          <mxGeometry x="398.6" y="285" width="21.4" height="15" as="geometry" />
        </mxCell>
      </root>
    </mxGraphModel>
  </diagram>
</mxfile>
